<svg data-v-f6a06796="" width="30" height="50" viewBox="0 0 40 60" fill="none" xmlns="http://www.w3.org/2000/svg"><path data-v-f6a06796="" d="M10.0165 50.1457C2.49866 42.7503 2.49866 30.7183 10.0165 23.3229C13.6583 19.7404 18.5 17.7673 23.6503 17.7673C28.52 17.7673 33.1136 19.5314 36.6785 22.7512C37.0237 23.0632 37.5568 23.0538 37.8889 22.7271L39.7443 20.9019C40.0948 20.5571 40.0834 19.994 39.7198 19.6621C37.1976 17.3606 34.2497 15.6592 31.0562 14.6275C30.7373 14.5244 30.6936 14.0996 30.9837 13.9346L37.7359 10.0993C38.1537 9.86201 38.297 9.33586 38.0558 8.9249L36.7449 6.69131C36.5037 6.28036 35.9688 6.13936 35.551 6.37665L26.4181 11.5634C26.1594 11.7104 25.8352 11.5265 25.8352 11.2324V0.859734C25.8352 0.385161 25.4437 0 24.9612 0H22.3394C21.8569 0 21.4654 0.385161 21.4654 0.859734V11.2341C21.4654 11.5282 21.142 11.7122 20.8825 11.5651L11.7495 6.37837C11.3318 6.14108 10.7969 6.28208 10.5557 6.69303L9.24477 8.92662C9.00356 9.33757 9.14689 9.86373 9.56464 10.101L16.3169 13.9363C16.607 14.1014 16.5633 14.5261 16.2443 14.6292C12.7703 15.7512 9.58737 17.6667 6.92703 20.2837C2.4602 24.6778 0 30.5206 0 36.7347C0 42.9489 2.4602 48.7916 6.92703 53.1857C11.3938 57.5798 17.3333 60 23.6503 60C29.6632 60 35.3343 57.8077 39.7181 53.8065C40.0825 53.4746 40.0948 52.9115 39.7434 52.5659L37.888 50.7407C37.5568 50.4148 37.0245 50.4045 36.6793 50.7157C29.1239 57.536 17.3359 57.3451 10.0165 50.1457Z" fill="white"></path></svg>